<svg xmlns="http://www.w3.org/2000/svg" xmlns:xlink="http://www.w3.org/1999/xlink" width="209" height="210" version="1.1" viewBox="0 0 209 210"><title>Rocket + Rocket</title><desc>Created with Sketch Beta.</desc><defs><linearGradient id="linearGradient-1" x1="0%" x2="100%" y1="50%" y2="50%"><stop offset="0%" stop-color="#FFD400"/><stop offset="100%" stop-color="#FF3F00"/></linearGradient></defs><g id="Page-1" fill="none" fill-rule="evenodd" stroke="none" stroke-width="1"><g id="Rocket-+-Rocket" transform="translate(-39.000000, -52.000000)"><g id="Rocket" transform="translate(150.000000, 153.500000) rotate(-45.000000) translate(-150.000000, -153.500000) translate(6.521739, 84.914894)"><path id="Flank-1" fill="red" d="M58.782748,0.575110263 L118.388959,0.0582369326 L140.105578,21.592002 L141.169883,43.1432585 L82.7128809,45.5387172 L82.4847544,24.6346455 L58.782748,0.575110263 Z"/><path id="Flank-2" fill="red" d="M58.782748,90.519141 L118.388959,90.0022677 L140.105578,111.536033 L141.169883,133.087289 L82.7128809,135.482748 L82.4847544,114.578676 L58.782748,90.519141 Z" transform="translate(99.962125, 112.741726) scale(1, -1) translate(-99.962125, -112.741726)"/><path id="Fire" fill="url(#linearGradient-1)" d="M61.7375113,97.3079857 C81.4633237,97.3079857 90.2352951,91.886914 90.2352951,67.9315236 C90.2352951,43.9761332 81.4633237,38.5550614 61.7375113,38.5550614 C42.0116988,38.5550614 8.89741151,69.7288872 8.89741151,69.7288872 C8.89741151,69.7288872 42.0116988,97.3079857 61.7375113,97.3079857 Z"/><path id="Body" fill="#D8D8D8" d="M164.377937,117.008325 C221.6262,117.008325 281.642023,66.1836756 281.642023,66.1836756 C281.642023,66.1836756 221.6262,18.4610845 164.377937,18.4610845 C107.129675,18.4610845 65.6819425,47.1633458 65.6819425,67.7347033 C65.6819425,88.3060608 107.129675,117.008325 164.377937,117.008325 Z"/><ellipse id="Window" cx="195.411" cy="66.437" fill="#494949" rx="21.744" ry="22.174"/><path id="Flank-3" fill="#F21616" d="M49.7394065,67.9573553 L63.9384832,51.7411666 L146.990548,57.0350604 L155.939455,66.2508762 L127.920331,66.7122167 L155.904202,66.2665352 L147.120145,75.7445915 L64.3075466,84.0516984 L49.7399787,67.9994718 L49.7019809,68.0000975 L49.7209187,67.9784693 L49.7022939,67.9579463 L49.7394065,67.9573553 Z"/></g></g></g></svg>